<svg viewBox="0 0 24 24" version="1.1" xmlns="http://www.w3.org/2000/svg" xmlns:xlink="http://www.w3.org/1999/xlink" xml:space="preserve" xmlns:serif="http://www.serif.com/" style="fill-rule:evenodd;clip-rule:evenodd;stroke-linejoin:round;stroke-miterlimit:2;">
    <g>
        <path d="M16.326,14.895c0,1.126 -0.558,1.688 -1.673,1.688l-4.722,0c-1.116,0 -1.674,-0.562 -1.674,-1.688l0,-11.162c0,-1.126 0.558,-1.688 1.674,-1.688l4.722,-0c1.115,-0 1.673,0.562 1.673,1.688l0,2.899l-1.957,-0l-0,-2.839l-4.124,-0l-0,11.042l4.124,0l-0,-3.242l1.957,-0l0,3.302Z" style="fill:currentColor;"/>
        <path d="M15.94,7.364c-0.21,-0.378 -0.687,-0.514 -1.065,-0.304l-11.01,6.126c-0.378,0.21 -0.513,0.687 -0.303,1.065l4.498,8.085c0.21,0.378 0.687,0.514 1.065,0.304l11.01,-6.126c0.378,-0.21 0.513,-0.687 0.303,-1.065l-4.498,-8.085Zm-10.629,6.809l3.737,6.718l9.641,-5.364l-3.737,-6.718l-9.641,5.364Z" style="fill:rgb(238,247,98);"/>
    </g>
</svg>
